<svg width="70" height="70" viewBox="0 0 70 70" fill="none" xmlns="http://www.w3.org/2000/svg">
<path d="M18.8389 10.7793C9.15918 15.6328 3.23926 18.668 3.14355 18.832C2.95215 19.2012 2.95215 50.209 3.14355 50.5781C3.30762 50.8789 34.2881 66.4238 34.7256 66.4238C35.1631 66.4238 66.1436 50.8789 66.3076 50.5781C66.499 50.209 66.499 19.2012 66.3076 18.832C66.1299 18.5039 35.1494 2.98633 34.6982 3C34.5205 3 27.3838 6.5 18.8389 10.7793ZM38.4854 7.18359C40.5498 8.22266 42.2451 9.09766 42.2451 9.13867C42.2314 9.17969 36.1201 12.4473 28.6279 16.4121L15.0381 23.6309L10.8682 21.5391C8.57129 20.4043 6.69824 19.4336 6.69824 19.3926C6.69824 19.3379 34.5068 5.36523 34.6846 5.32422C34.7119 5.31055 36.4209 6.1582 38.4854 7.18359ZM47.9736 11.9277C50.9814 13.4453 51.0361 13.4727 50.708 13.6777C50.5303 13.8008 44.3916 17.0684 37.0771 20.9512L23.7881 28.0059L20.6162 26.4199C17.5947 24.9023 17.458 24.8203 17.7725 24.6562C17.9639 24.5605 24.0889 21.3066 31.376 17.4238C38.6768 13.541 44.7061 10.3828 44.7744 10.3828C44.8564 10.3828 46.292 11.0801 47.9736 11.9277ZM58.1729 17.0273C60.6885 18.2988 62.7529 19.3516 62.7529 19.3926C62.7529 19.4336 56.4502 22.6191 48.7393 26.4746L34.7256 33.4746L30.46 31.3418C26.4131 29.3184 26.208 29.1953 26.5225 29.0312C26.7139 28.9355 32.8389 25.6816 40.126 21.7988C47.4268 17.916 53.4287 14.7441 53.4834 14.7441C53.5518 14.7441 55.6572 15.7695 58.1729 17.0273ZM13.9443 31.4238V37.3164L14.2861 37.6445C14.6143 37.9727 14.6689 37.9863 16.7744 37.9863H18.9209L21.1221 40.1738C23.0635 42.0879 23.3779 42.3613 23.7744 42.3613C24.0615 42.3613 24.335 42.2383 24.54 42.0195L24.8818 41.6914V36.3457V31.0137L29.2568 33.2012L33.6318 35.3887V49.4707V63.5527L19.4131 56.4434L5.19434 49.334V35.252V21.1699L9.56934 23.3574L13.9443 25.5449V31.4238ZM64.2568 35.252V49.334L50.0381 56.4434L35.8193 63.5527V49.4707V35.3887L50.0107 28.293C57.8037 24.3828 64.2021 21.1836 64.2295 21.1836C64.2432 21.1699 64.2568 27.5 64.2568 35.252ZM22.6943 34.2539V38.5879L21.2725 37.1934L19.8643 35.7988H17.9912H16.1318V31.2188V26.6387L19.4131 28.2793L22.6943 29.9199V34.2539Z" fill="#F17E00"/>
</svg>
