<svg width="70" height="70" viewBox="0 0 70 70" fill="none" xmlns="http://www.w3.org/2000/svg">
<path d="M21.5352 7.12305C14.3984 11.0332 8.42383 14.3555 8.27344 14.5059C8 14.7656 8 14.957 8 25.5391C8 37.1465 8.01367 37.4609 8.75195 41.1523C10.9531 52.1445 18.1035 61.7559 28.0293 67.0332C29.8477 68.0039 34.4004 70 34.7832 70C35.2344 69.9863 41.168 67.375 42.8496 66.4316C46.3223 64.4902 48.9062 62.5078 51.6816 59.6641C57.4375 53.7715 60.9238 46.6484 62.1543 38.2812C62.3594 36.9277 62.4004 35.1641 62.4414 25.8125L62.4961 14.9297L62.1133 14.5195C61.6348 14.0137 35.3301 0 34.8516 0C34.6738 0 28.6855 3.19922 21.5352 7.12305ZM47.4434 9.48828L59.8164 16.0918V26.1953C59.8027 35.9844 59.8027 36.3535 59.502 38.2676C58.3125 45.8281 55.1406 52.3086 50.0547 57.5859C46.3223 61.4551 42.8633 63.7793 37.1758 66.2266L34.7695 67.2656L32.8008 66.3906C29.2871 64.8457 27.1816 63.6699 24.8574 61.9336C17.6797 56.5879 12.7031 48.5762 11.1582 39.9219C10.6387 36.9688 10.5977 36.0801 10.5977 26.0039V16.1055L22.6289 9.50195C29.2461 5.86523 34.7559 2.88477 34.8652 2.88477C34.9746 2.88477 40.6348 5.85156 47.4434 9.48828Z" fill="#F17E00"/>
<path d="M45.0898 28.4785C44.3105 29.1074 40.8379 31.9375 37.3516 34.7676L31.0215 39.9219L28.1367 36.5449C24.6777 32.4707 24.623 32.4024 23.9805 32.4024C23.3242 32.4024 22.9824 32.6074 22.75 33.168C22.5859 33.5645 22.5859 33.7012 22.75 34.0703C22.9961 34.6719 29.8594 42.6699 30.3242 42.916C30.5703 43.0528 30.8027 43.0664 31.1309 42.9844C31.5957 42.8614 47.8926 29.6817 48.1387 29.2442C48.5625 28.4375 47.8926 27.3438 46.9766 27.3438C46.5664 27.3438 46.252 27.5352 45.0898 28.4785Z" fill="#F17E00"/>
</svg>
