<svg width="70" height="70" viewBox="0 0 70 70" fill="none" xmlns="http://www.w3.org/2000/svg">
<path d="M17.2266 2.04989C17.1172 2.10458 16.8848 2.26864 16.7207 2.41903C16.4199 2.69247 16.4062 2.78817 16.4062 5.12606C16.4062 10.4171 17.5273 13.8897 20.0977 16.4737C21.0547 17.4444 21.4785 17.7589 22.4629 18.2237C23.8848 18.921 25.7031 19.3311 27.3438 19.3311C28.4512 19.3311 30.8301 19.044 31.3496 18.839C31.541 18.7706 31.6914 18.9893 32.2109 20.0968C33.7695 23.4054 34.7539 27.2198 35.3555 32.2511C35.7656 35.6554 35.752 43.0108 35.3281 46.1007L35.2461 46.6749L34.5352 46.5929C32.2656 46.3057 30.9395 45.8272 28.2461 44.296C24.5684 42.2042 20.9453 40.714 17.4316 39.8526C13.1797 38.8136 9.54297 39.2784 5.87891 41.3429C4.00586 42.3956 1.91406 44.1182 0.683594 45.5948L0 46.4151V52.3487V58.2823L0.314453 58.6378C0.574219 58.9522 0.779297 59.0206 1.77734 59.13C7.28711 59.7452 9.58398 60.1554 12.5098 61.044C14.5469 61.6866 16.3105 62.3839 22.5586 65.0909C29.0254 67.8936 29.0391 67.8936 30.666 68.2765C33.373 68.919 36.5039 68.8917 39.2109 68.2081C39.9219 68.0167 42.6699 67.0186 45.3086 65.9659C47.9473 64.9132 50.4766 63.9561 50.9277 63.8468C55.6582 62.6436 59.1309 59.9229 61.209 55.7667C62.1934 53.8253 70 35.9288 70 35.6417C70 35.2042 69.4805 34.6573 68.9883 34.5753C68.291 34.4386 65.9531 34.7667 64.8867 35.1495C63.4648 35.6554 62.0977 36.5577 61.0312 37.6925C60.5117 38.2393 58.0645 41.0421 55.5762 43.8995L51.0645 49.1222L50.4902 48.4522C50.1621 48.0968 49.6289 47.6319 49.3008 47.4405C48.0977 46.7432 47.5234 46.6749 42.3418 46.6749H37.584L37.6523 46.2237C37.6934 45.9913 37.7617 45.294 37.8027 44.6925C38.0352 41.589 39.1289 37.2413 40.3594 34.4796C40.8379 33.4268 40.7012 33.4679 42.1777 33.8917C43.4219 34.2472 45.8418 34.3155 46.8398 34.0284C50.7773 32.8936 53.1152 28.8057 53.7305 21.9015C54.0039 18.9483 53.8809 17.8956 53.2383 17.5401C52.7461 17.2804 48.8633 17.3214 47.1406 17.6085C43.1074 18.2647 40.1953 20.1241 38.8555 22.8858C38.0215 24.5675 37.8164 25.5108 37.8164 27.5343C37.8301 29.3253 37.9941 30.4874 38.4316 31.7999L38.6914 32.5655L38.2949 33.4405L37.8984 34.3018L37.8164 33.8233C37.7754 33.5636 37.6797 32.6612 37.5977 31.8409C37.1055 26.8917 35.834 22.2159 33.9883 18.5382L33.3867 17.335L33.6602 16.7198C34.4668 14.9288 34.8906 12.5362 34.7129 10.7862C34.2344 6.13778 30.3242 3.25301 23.2285 2.30965C21.5469 2.07723 17.5547 1.91317 17.2266 2.04989ZM22.4219 4.49715C26.2363 4.94833 29.0117 5.96004 30.7344 7.50497C31.6914 8.36629 32.375 9.76083 32.4844 11.0597C32.5527 12.0167 32.3203 13.7804 32.0059 14.6007L31.8418 14.9972L31.3496 14.3956C30.4746 13.3429 28.8887 11.839 27.8633 11.1143C26.5918 10.2257 24.8691 9.35067 24.3633 9.35067C23.5566 9.35067 23.0645 10.1026 23.3789 10.8682C23.4883 11.128 23.8301 11.4015 24.5137 11.7569C26.4824 12.7823 28.123 14.1085 29.5586 15.8311C30.0508 16.419 30.1875 16.6788 30.0781 16.7882C29.9824 16.8839 29.1621 16.9386 27.7129 16.9386C25.7305 16.9386 25.3887 16.8975 24.541 16.6104C23.2969 16.1866 22.6133 15.7901 21.7656 14.9698C19.8379 13.1241 18.8672 10.3624 18.6484 6.05575L18.5527 4.29208H19.6328C20.2344 4.29208 21.4785 4.38778 22.4219 4.49715ZM51.543 20.3565C51.543 23.1319 50.7363 26.7413 49.6562 28.8331C48.5625 30.9249 47.0039 31.9503 44.9121 31.964C43.9824 31.964 42.2051 31.6358 41.9863 31.4307C41.959 31.3897 42.2871 30.8292 42.7383 30.1729C43.6953 28.7647 45.3496 26.9874 46.6074 26.003C47.7012 25.1417 47.7148 25.1143 47.7148 24.5538C47.7148 24.253 47.6055 23.9932 47.3594 23.7472C46.9082 23.296 46.3477 23.378 45.4316 23.9932C44.4199 24.6768 42.123 27.0557 41.125 28.4503L40.2363 29.7081L40.1406 29.0792C39.8809 27.1788 40.2363 25.005 41.0293 23.6241C42.4785 21.0948 45.7324 19.6866 50.3535 19.6182L51.543 19.6046V20.3565ZM66.9922 37.0362C66.9922 37.1456 59.5 54.1397 59.1172 54.919C57.4492 58.2276 54.5371 60.4972 50.6543 61.5499C49.8203 61.7686 47.1543 62.753 44.707 63.7374C42.2598 64.7081 39.8398 65.6378 39.3203 65.8018C36.3535 66.7179 32.9082 66.6905 30.0234 65.7472C29.4355 65.5557 26.4141 64.2979 23.3105 62.9444C20.207 61.5909 16.9531 60.21 16.0918 59.8819C12.209 58.378 8.2168 57.4757 3.25391 56.9835L2.32422 56.9015V52.0069V47.1124L3.54102 45.964C5.52344 44.0772 8.03906 42.587 10.3359 41.9581C11.5938 41.6163 14.3418 41.5343 15.6816 41.8077C19.4141 42.5597 23.3652 44.1182 27.2617 46.3741C29.2988 47.5499 30.8711 48.2198 32.5391 48.6163C33.6055 48.8761 34.2891 48.9034 40.6055 48.9854C48.166 49.0811 47.8789 49.0401 48.6992 49.9151C49.7383 51.0089 49.7383 52.7315 48.6992 53.8253C47.8652 54.714 48.3984 54.6593 38.418 54.755C28.7383 54.837 28.3555 54.8643 25.9492 55.5753L25.0332 55.835L25.293 56.5597C25.4297 56.9425 25.6074 57.4347 25.6758 57.6397L25.8262 57.9952L26.6875 57.7354C28.6973 57.1339 29.8457 57.0655 38.582 57.0655C43.5312 57.0655 47.1406 57.0108 47.5781 56.9288C48.6172 56.7374 49.4648 56.2725 50.2441 55.4932C51.0781 54.6593 51.5156 53.7979 51.7207 52.5811L51.8711 51.6651L57.1895 45.5128C62.7676 39.0597 63.2598 38.5265 64.2441 37.9522C65.2422 37.3643 66.9922 36.7901 66.9922 37.0362Z" fill="#F17E00"/>
</svg>
