<svg width="70" height="70" viewBox="0 0 70 70" fill="none" xmlns="http://www.w3.org/2000/svg">
<path d="M33.1543 0.0821915C25.0469 0.711098 17.8145 5.11344 13.5078 12.0724C11.7988 14.8068 10.541 18.3068 10.0625 21.6427C9.78906 23.4884 9.78906 26.8244 10.0488 28.6427C10.582 32.4025 12.0312 36.1896 14.0547 39.1427C14.4512 39.7306 14.752 40.2912 14.7246 40.3732C14.6836 40.4689 12.373 44.6252 9.58398 49.6291C5.74219 56.506 4.51172 58.8302 4.51172 59.172C4.51172 59.8556 5.14062 60.4299 5.87891 60.4299C6.17969 60.4299 8.75 60.1427 11.5801 59.8009C14.3965 59.4591 16.7617 59.2267 16.8164 59.2951C16.8711 59.3498 17.8555 61.6193 19.0039 64.3263C21.3418 69.8498 21.4922 70.0822 22.4766 69.9591C22.832 69.9045 23.1328 69.7677 23.3105 69.549C23.4609 69.3713 25.8262 64.9689 28.5742 59.7736L33.5645 50.3127H34.7402H35.916L41.207 59.842C44.1191 65.092 46.6211 69.4943 46.7441 69.631C46.8809 69.7677 47.25 69.9181 47.5508 69.9591C48.4941 70.0822 48.6445 69.8224 50.9824 64.3263C52.1445 61.6193 53.1289 59.3498 53.1836 59.2951C53.2383 59.2267 55.6035 59.4591 58.4199 59.8009C61.25 60.1427 63.8203 60.4299 64.1211 60.4299C64.8594 60.4299 65.4883 59.8556 65.4883 59.172C65.4883 58.8439 64.1484 56.2326 60.457 49.2873L55.4121 39.8674L56.123 38.7599C61.2637 30.8576 61.4414 20.4259 56.5742 12.3322C54.5234 8.90055 51.4199 5.78336 47.9609 3.63688C43.7227 1.03922 38.1719 -0.300621 33.1543 0.0821915ZM38.623 3.06266C43.5723 3.95133 47.4414 5.97477 50.9277 9.50211C54.291 12.9064 56.3965 17.1037 57.1621 21.9435C57.3809 23.3381 57.3945 27.0978 57.1621 28.4377C56.3418 33.3869 54.3594 37.3517 50.9414 40.8517C47.4551 44.4338 43.2578 46.5802 38.1445 47.3869C36.1895 47.6877 32.498 47.592 30.5566 47.1681C26.127 46.2248 22.2578 44.1467 19.1406 41.0158C15.6953 37.5705 13.5625 33.3459 12.7695 28.4377C12.4688 26.4689 12.5645 22.6681 12.9883 20.7131C15.0527 11.047 22.832 3.97868 32.6074 2.87125C34.0293 2.70719 37.2285 2.81657 38.623 3.06266ZM57.6816 49.9025C59.8555 53.9904 61.6328 57.3674 61.6055 57.3947C61.5781 57.4084 59.459 57.1759 56.8887 56.8615C51.8711 56.2599 51.6523 56.2599 51.2285 56.9299C51.1328 57.0802 50.2578 59.0763 49.2871 61.3595C48.3164 63.6291 47.4824 65.4474 47.4414 65.3927C47.2363 65.1466 38.9512 50.1349 39.0059 50.0939C39.0332 50.0666 39.6348 49.9162 40.3457 49.7521C43.5996 49.0549 46.9629 47.5509 49.6289 45.6095C50.5723 44.9259 52.5684 43.2306 53.1016 42.6701C53.334 42.4377 53.5527 42.2873 53.6074 42.342C53.6621 42.4103 55.4941 45.8009 57.6816 49.9025ZM19.8516 45.2814C22.3262 47.1545 25.1016 48.5216 28.1641 49.4103C28.8066 49.5881 29.627 49.7795 29.9824 49.8341C30.3379 49.8888 30.625 49.9572 30.625 49.9982C30.625 50.2306 22.4902 65.3381 22.4219 65.256C22.3535 65.2013 21.5605 63.3556 20.6309 61.1818C19.7148 58.9943 18.8672 57.0802 18.7715 56.9299C18.3477 56.2599 18.1289 56.2599 13.1113 56.8615C10.541 57.1759 8.43555 57.4084 8.4082 57.3947C8.39453 57.3674 15.6953 44.2287 16.4746 42.8888L16.707 42.506L17.7734 43.5177C18.3613 44.0783 19.3047 44.8713 19.8516 45.2814Z" fill="#F17E00"/>
<path d="M34.5371 16.0742C34.3867 16.1426 33.0742 17.3867 31.6387 18.8496C29.1641 21.3379 29 21.5293 29 22.0078C29 22.6777 29.3145 23.1426 29.9023 23.334C30.5996 23.5664 30.9551 23.375 32.3496 21.9668C33.0195 21.2832 33.6211 20.7363 33.6758 20.7363C33.7441 20.7363 33.7852 23.2246 33.7852 26.2598V31.7832L32.1035 31.8242C30.2031 31.8789 29.7656 32.0566 29.5742 32.8086C29.4238 33.4102 29.5195 33.793 29.916 34.2031L30.2715 34.5449H35.084H39.8965L40.252 34.2031C40.7031 33.7383 40.7988 33.2188 40.5117 32.6309C40.1973 31.9883 39.6777 31.8242 37.9277 31.8242L36.5195 31.8105V24.6602C36.5195 20.3262 36.4648 17.332 36.3828 17.0313C36.3008 16.7578 36.123 16.4297 35.9863 16.3066C35.6855 16.0332 34.9199 15.9102 34.5371 16.0742Z" fill="#F17E00"/>
</svg>
