<svg width="102" height="16" viewBox="0 0 102 16" fill="none" xmlns="http://www.w3.org/2000/svg">
<path d="M101.35 8.35707C101.547 8.16377 101.55 7.8472 101.357 7.65L98.2071 4.43636C98.0138 4.23916 97.6972 4.23599 97.5 4.42929C97.3028 4.62259 97.2996 4.93916 97.4929 5.13636L100.293 7.99293L97.4364 10.7929C97.2392 10.9862 97.236 11.3028 97.4293 11.5C97.6226 11.6972 97.9392 11.7004 98.1364 11.5071L101.35 8.35707ZM0.995 7.49997L4.56643 7.53569L4.57643 6.53574L1.005 6.50003L0.995 7.49997ZM11.7093 7.60712L18.8521 7.67855L18.8621 6.6786L11.7193 6.60717L11.7093 7.60712ZM25.995 7.74998L33.1379 7.8214L33.1479 6.82145L26.005 6.75003L25.995 7.74998ZM40.2807 7.89283L47.4236 7.96426L47.4336 6.96431L40.2907 6.89288L40.2807 7.89283ZM54.5664 8.03569L61.7093 8.10712L61.7193 7.10717L54.5764 7.03574L54.5664 8.03569ZM68.8521 8.17855L75.995 8.24998L76.005 7.25003L68.8621 7.1786L68.8521 8.17855ZM83.1379 8.3214L90.2807 8.39283L90.2907 7.39288L83.1479 7.32145L83.1379 8.3214ZM97.4236 8.46426L100.995 8.49997L101.005 7.50002L97.4336 7.46431L97.4236 8.46426ZM101.7 8.71414C102.094 8.32754 102.101 7.69441 101.714 7.3L95.4141 0.87272C95.0275 0.47831 94.3944 0.471979 94 0.858579C93.6056 1.24518 93.5992 1.87831 93.9858 2.27272L99.5859 7.98586L93.8727 13.5859C93.4783 13.9725 93.472 14.6056 93.8586 15C94.2452 15.3944 94.8783 15.4007 95.2727 15.0141L101.7 8.71414ZM0.990001 7.99995L4.56143 8.03566L4.58143 6.03576L1.01 6.00005L0.990001 7.99995ZM11.7043 8.10709L18.8471 8.17852L18.8671 6.17862L11.7243 6.10719L11.7043 8.10709ZM25.99 8.24995L33.1329 8.32138L33.1529 6.32148L26.01 6.25005L25.99 8.24995ZM40.2757 8.39281L47.4186 8.46424L47.4386 6.46434L40.2957 6.39291L40.2757 8.39281ZM54.5614 8.53566L61.7043 8.60709L61.7243 6.60719L54.5814 6.53576L54.5614 8.53566ZM68.8472 8.67852L75.99 8.74995L76.01 6.75005L68.8671 6.67862L68.8472 8.67852ZM83.1329 8.82138L90.2757 8.89281L90.2957 6.89291L83.1529 6.82148L83.1329 8.82138ZM97.4186 8.96424L100.99 8.99995L101.01 7.00005L97.4386 6.96434L97.4186 8.96424Z" fill="white"/>
</svg>
