<svg width="71" height="21" viewBox="0 0 71 21" fill="none" xmlns="http://www.w3.org/2000/svg">
<path d="M70.3766 11.1152C70.1852 10.6641 69.8844 10.4727 66.193 8.54492C62.2418 6.48047 59.5895 5.22266 56.4176 3.89648C52.5895 2.31055 47.5719 0.65625 46.6012 0.65625C45.7398 0.65625 44.9332 1.58594 45.1246 2.35156C45.3297 3.1582 47.982 6.125 50.0602 7.875L51.277 8.90039L48.6246 8.80469C47.1617 8.75 43.6207 8.58594 40.7633 8.44922C31.4664 7.9707 27.3785 7.875 21.4176 7.94336C15.2652 8.01172 12.7633 8.17578 8.29258 8.80469C5.20274 9.24219 1.38829 10.0078 0.964457 10.2949C0.567973 10.5547 0.431254 11.0469 0.595316 11.5527C0.786723 12.127 1.23789 12.291 2.27696 12.1406C4.09532 11.8945 7.8004 11.5938 11.8473 11.375C17.1383 11.0879 27.0914 11.1699 38.9859 11.5801C43.5797 11.7441 48.3922 11.9082 49.6773 11.9492C51.5367 12.0176 52.0152 12.0723 51.9332 12.209C51.8785 12.3047 50.7984 13.5352 49.5133 14.9434C46.6422 18.1152 46.4371 18.375 46.4371 18.8945C46.4371 19.4688 46.902 20.1797 47.3395 20.2891C48.0504 20.4668 51.9332 19.8242 55.1871 18.9766C59.6168 17.8281 63.7457 16.1875 68.2848 13.7539C69.5973 13.0566 70.1578 12.6738 70.3082 12.4004C70.5133 11.9766 70.5406 11.5391 70.3766 11.1152ZM60.5191 14.082C58.0855 15.0527 54.9547 16.0234 52.8902 16.4473C52.2613 16.5703 51.7281 16.6523 51.7008 16.625C51.6734 16.5977 52.5758 15.5859 53.6969 14.3691C54.818 13.1523 55.734 12.0586 55.734 11.9355C55.734 11.8125 55.857 11.5527 56.0074 11.3613C56.1988 11.1152 56.2809 10.8008 56.2809 10.3633C56.2809 9.57031 55.857 9.07813 55.0777 8.94141C54.6539 8.87305 54.2574 8.55859 52.5211 6.80859C51.4 5.6875 50.5113 4.75781 50.566 4.75781C50.6207 4.75781 51.4137 5.04492 52.3434 5.38672C55.2281 6.45313 58.7281 7.98438 62.4605 9.84375L66.0563 11.6211L64.484 12.373C63.6227 12.7832 61.8316 13.5488 60.5191 14.082Z" fill="white"/>
</svg>
