<svg width="26" height="25" viewBox="0 0 26 25" fill="none" xmlns="http://www.w3.org/2000/svg">
<path d="M12.3574 0.0545826C10.7704 0.20595 9.3642 0.611223 7.93353 1.32411C6.664 1.954 5.73627 2.62294 4.68646 3.65322C3.68548 4.64443 2.96283 5.6454 2.3183 6.93935C0.789977 10.0058 0.584899 13.4823 1.73236 16.7245C2.16205 17.9257 3.01654 19.4393 3.79779 20.3866C4.97455 21.8026 6.32709 22.8768 7.93353 23.6776C9.83783 24.6249 11.8642 25.0692 13.9345 24.9862C15.7949 24.9081 17.4111 24.4979 19.0566 23.6776C21.039 22.6962 22.6845 21.2411 23.9199 19.3856C24.3447 18.746 24.9794 17.496 25.2382 16.7782C26.0927 14.4442 26.2148 11.7587 25.58 9.34169C25.3408 8.43349 25.1308 7.87685 24.6767 6.95888C24.0419 5.6747 23.373 4.74208 22.3427 3.69228C19.7499 1.06532 16.0097 -0.29698 12.3574 0.0545826ZM9.18353 6.00673C9.33978 6.06532 11.7079 8.40419 11.8154 8.60439C11.9814 8.92177 11.9472 8.98036 11.0585 9.88368C10.6093 10.3427 10.1992 10.7919 10.1552 10.8749C9.96966 11.2411 10.0087 11.6757 10.2578 12.0517C11.0732 13.2626 13.2216 15.3378 14.2128 15.87C14.4374 15.9921 14.8818 16.0018 15.1454 15.8944C15.2578 15.8456 15.6386 15.5087 16.1318 15.0155C16.9472 14.205 17.0742 14.1171 17.3427 14.1854C17.5087 14.2245 19.9062 16.5975 20.0185 16.8368C20.165 17.1493 19.999 17.413 19.2226 18.0917C18.3925 18.8192 17.4697 19.1268 16.5224 18.995C15.248 18.8192 13.1533 17.7841 11.6396 16.5731C11.0732 16.119 9.68646 14.7274 9.23724 14.161C8.22162 12.8866 7.34271 11.2606 7.02045 10.0839C6.81537 9.32704 6.90326 8.53603 7.27923 7.76454C7.48431 7.3495 7.56732 7.2372 8.13861 6.65615C8.48529 6.2997 8.81732 6.00185 8.87591 5.99208C8.92963 5.98232 8.9931 5.96767 9.01263 5.96279C9.03216 5.96279 9.10541 5.98232 9.18353 6.00673Z" fill="#95B544"/>
</svg>
