<svg width="25" height="25" viewBox="0 0 25 25" fill="none" xmlns="http://www.w3.org/2000/svg">
<path d="M0 1.51268V2.02537H1.41602C2.19727 2.02537 2.83203 2.03514 2.83203 2.0449C2.83203 2.12791 6.25 14.7304 7.24609 18.334C7.50488 19.2617 7.71484 20.0185 7.71484 20.0234C7.71484 20.0234 7.59277 20.1113 7.44141 20.2138C6.93359 20.5654 6.55762 21.1465 6.41602 21.791C6.33789 22.167 6.32812 22.7871 6.3916 22.914C6.4209 22.958 6.47461 23.1142 6.51855 23.2558C6.5625 23.3974 6.68945 23.6416 6.79688 23.8027C7.51465 24.8818 8.8916 25.2334 10.0977 24.6426C10.6641 24.3691 11.1865 23.749 11.3818 23.124C11.582 22.4746 11.4844 21.6543 11.1377 21.1074L10.9863 20.873H14.5312C16.4795 20.873 18.0664 20.8877 18.0566 20.9072C18.0469 20.9316 17.9785 21.0635 17.9053 21.2002C17.0215 22.8896 18.2812 24.9306 20.2148 24.9258C21.2793 24.9258 22.2266 24.2666 22.5781 23.2851C22.6221 23.1533 22.6807 23.0068 22.71 22.9629C22.7686 22.8457 22.7686 22.2256 22.7002 21.8691C22.5391 20.9853 21.8262 20.1894 20.9229 19.8916C20.7666 19.8379 19.5312 19.8183 14.7217 19.7988L8.71582 19.7744L8.51074 19.0176C8.39844 18.6025 8.30566 18.2363 8.30078 18.207C8.30078 18.1631 8.35449 18.1631 8.48633 18.1924C8.58398 18.2168 11.3135 18.2363 14.5508 18.2363C20.9619 18.2363 20.6885 18.2461 21.25 17.9629C21.582 17.792 22.0215 17.3525 22.1826 17.0156C22.3047 16.7617 25 6.95213 25 6.75682C25 6.61033 24.8975 6.42479 24.7607 6.33689C24.6387 6.25389 24.1064 6.249 14.8389 6.23436L5.04883 6.22459L4.37012 3.74412C3.78418 1.61033 3.67188 1.249 3.55957 1.13182L3.42773 0.999981H1.71387H0V1.51268ZM9.59961 20.9853C10.249 21.3125 10.5859 22.0888 10.3809 22.7822C10.127 23.6709 9.16016 24.1103 8.31055 23.7295C7.03125 23.1582 7.13379 21.3271 8.46191 20.8926C8.77441 20.79 9.29688 20.8291 9.59961 20.9853ZM20.8105 20.9707C21.1035 21.1074 21.3965 21.3955 21.543 21.6933C21.6357 21.8838 21.6553 22.001 21.6553 22.3623C21.6553 22.7431 21.6357 22.8359 21.5234 23.0508C20.9131 24.2129 19.2139 24.1006 18.7451 22.8701C18.6426 22.6015 18.6279 22.2158 18.7061 21.9228C18.8184 21.4931 19.2285 21.0635 19.6777 20.9023C19.9805 20.7949 20.5078 20.8242 20.8105 20.9707Z" fill="#95B544"/>
</svg>
