<svg width="41" height="40" viewBox="0 0 41 40" fill="none" xmlns="http://www.w3.org/2000/svg">
<rect x="0.5" width="40" height="40" fill="#ED7E1E"/>
<g clip-path="url(#clip0_343_824)">
<path d="M30.0881 15.1911C29.8574 14.3344 29.182 13.659 28.3253 13.4283C26.7602 13 20.5 13 20.5 13C20.5 13 14.2397 13 12.6746 13.4119C11.8344 13.6425 11.1425 14.3344 10.9119 15.1911C10.5 16.7562 10.5 20.0016 10.5 20.0016C10.5 20.0016 10.5 23.2635 10.9119 24.8121C11.1425 25.6688 11.818 26.3443 12.6746 26.5749C14.2562 27.0032 20.5 27.0032 20.5 27.0032C20.5 27.0032 26.7602 27.0032 28.3253 26.5914C29.182 26.3607 29.8574 25.6853 30.0881 24.8286C30.4999 23.2635 30.4999 20.0181 30.4999 20.0181C30.4999 20.0181 30.5164 16.7562 30.0881 15.1911Z" fill="white"/>
<path d="M18.5063 22.9999L23.7123 20.0015L18.5063 17.0032V22.9999Z" fill="#ED7E1E"/>
</g>
<defs>
<clipPath id="clip0_343_824">
<rect width="20" height="20" fill="white" transform="translate(10.5 10)"/>
</clipPath>
</defs>
</svg>
