<svg width="41" height="40" viewBox="0 0 41 40" fill="none" xmlns="http://www.w3.org/2000/svg">
<rect x="0.5" width="40" height="40" fill="#ED7E1E"/>
<path d="M20.5045 14.8723C17.6661 14.8723 15.3767 17.1617 15.3767 20C15.3767 22.8383 17.6661 25.1277 20.5045 25.1277C23.3428 25.1277 25.6322 22.8383 25.6322 20C25.6322 17.1617 23.3428 14.8723 20.5045 14.8723ZM20.5045 23.3337C18.6703 23.3337 17.1708 21.8387 17.1708 20C17.1708 18.1613 18.6658 16.6663 20.5045 16.6663C22.3431 16.6663 23.8382 18.1613 23.8382 20C23.8382 21.8387 22.3387 23.3337 20.5045 23.3337ZM27.038 14.6625C27.038 15.3275 26.5025 15.8585 25.842 15.8585C25.177 15.8585 24.6459 15.323 24.6459 14.6625C24.6459 14.002 25.1815 13.4665 25.842 13.4665C26.5025 13.4665 27.038 14.002 27.038 14.6625ZM30.4342 15.8764C30.3583 14.2742 29.9924 12.8551 28.8186 11.6858C27.6494 10.5166 26.2302 10.1506 24.6281 10.0703C22.9769 9.97657 18.0276 9.97657 16.3764 10.0703C14.7787 10.1462 13.3595 10.5121 12.1858 11.6814C11.0121 12.8506 10.6506 14.2698 10.5703 15.8719C10.4766 17.5232 10.4766 22.4724 10.5703 24.1236C10.6462 25.7258 11.0121 27.1449 12.1858 28.3142C13.3595 29.4834 14.7742 29.8494 16.3764 29.9297C18.0276 30.0234 22.9769 30.0234 24.6281 29.9297C26.2302 29.8538 27.6494 29.4879 28.8186 28.3142C29.9879 27.1449 30.3538 25.7258 30.4342 24.1236C30.5279 22.4724 30.5279 17.5276 30.4342 15.8764ZM28.301 25.8953C27.9529 26.7701 27.279 27.4439 26.3998 27.7965C25.0833 28.3186 21.9593 28.1981 20.5045 28.1981C19.0496 28.1981 15.9212 28.3142 14.6091 27.7965C13.7344 27.4484 13.0605 26.7745 12.708 25.8953C12.1858 24.5788 12.3063 21.4549 12.3063 20C12.3063 18.5451 12.1903 15.4167 12.708 14.1047C13.0561 13.2299 13.7299 12.5561 14.6091 12.2035C15.9256 11.6814 19.0496 11.8019 20.5045 11.8019C21.9593 11.8019 25.0878 11.6858 26.3998 12.2035C27.2745 12.5516 27.9484 13.2255 28.301 14.1047C28.8231 15.4212 28.7026 18.5451 28.7026 20C28.7026 21.4549 28.8231 24.5833 28.301 25.8953Z" fill="white"/>
</svg>
