<svg width="14" height="18" viewBox="0 0 14 18" fill="none" xmlns="http://www.w3.org/2000/svg">
<path d="M6.46267 0.0118217C6.39426 0.0206203 6.18048 0.0514145 5.99235 0.0778084C4.01272 0.346157 2.15281 1.59112 1.06252 3.37718C-0.45534 5.85831 -0.335622 9.13129 1.34899 11.454C1.61835 11.8236 6.33013 17.4765 6.63797 17.802C6.79617 17.9692 6.85176 18 6.99285 18C7.09974 18 7.19808 17.9648 7.25794 17.912C7.35201 17.824 12.1065 12.1491 12.4913 11.6652C13.5645 10.3103 14.1289 8.38783 13.975 6.63696C13.8852 5.63835 13.7014 4.94768 13.3037 4.08985C12.3075 1.95185 10.4006 0.482533 8.11307 0.0910072C7.74109 0.0250206 6.69783 -0.0233707 6.46267 0.0118217Z" fill="white"/>
<path d="M6.62368 4.01842C5.10581 4.23265 4 5.48441 4 7.00501C4 8.17696 4.62228 9.17669 5.67764 9.69336C6.14435 9.92439 6.47231 10 7.00209 10C7.53187 10 7.85983 9.92439 8.32654 9.69336C9.3819 9.17669 10.0042 8.17696 9.99998 7.00501C9.99998 6.47574 9.9243 6.1523 9.69725 5.68184C9.39872 5.08116 8.9278 4.6065 8.31813 4.29986C7.85983 4.07303 7.12823 3.95122 6.62368 4.01842Z" fill="#95B544"/>
</svg>
