<svg width="72" height="72" viewBox="0 0 72 72" fill="none" xmlns="http://www.w3.org/2000/svg">
<g filter="url(#filter0_dd_1_1179)">
<rect x="16" y="8" width="40" height="40" fill="url(#paint0_radial_1_1179)"/>
<path d="M36 19.8072C38.6506 19.8072 39.0121 19.8072 40.0964 19.8072C41.0602 19.8072 41.5422 20.0482 41.9036 20.1687C42.3855 20.4096 42.747 20.5301 43.1084 20.8916C43.4699 21.253 43.7108 21.6145 43.8313 22.0964C43.9518 22.4578 44.0723 22.9398 44.1928 23.9036C44.1928 24.988 44.1928 25.2289 44.1928 28C44.1928 30.7711 44.1928 31.0121 44.1928 32.0964C44.1928 33.0602 43.9518 33.5422 43.8313 33.9036C43.5904 34.3855 43.4699 34.747 43.1084 35.1084C42.747 35.4699 42.3855 35.7108 41.9036 35.8313C41.5422 35.9518 41.0602 36.0723 40.0964 36.1928C39.0121 36.1928 38.7711 36.1928 36 36.1928C33.2289 36.1928 32.988 36.1928 31.9036 36.1928C30.9398 36.1928 30.4578 35.9518 30.0964 35.8313C29.6145 35.5904 29.253 35.4699 28.8916 35.1084C28.5301 34.747 28.2892 34.3855 28.1687 33.9036C28.0482 33.5422 27.9277 33.0602 27.8072 32.0964C27.8072 31.0121 27.8072 30.7711 27.8072 28C27.8072 25.2289 27.8072 24.988 27.8072 23.9036C27.8072 22.9398 28.0482 22.4578 28.1687 22.0964C28.4096 21.6145 28.5301 21.253 28.8916 20.8916C29.253 20.5301 29.6145 20.2892 30.0964 20.1687C30.4578 20.0482 30.9398 19.9277 31.9036 19.8072C32.988 19.8072 33.3494 19.8072 36 19.8072ZM36 18C33.2289 18 32.988 18 31.9036 18C30.8193 18 30.0964 18.241 29.494 18.4819C28.8916 18.7229 28.2892 19.0843 27.6867 19.6867C27.0843 20.2892 26.8434 20.7711 26.4819 21.494C26.241 22.0964 26.1205 22.8193 26 23.9036C26 24.988 26 25.3494 26 28C26 30.7711 26 31.0121 26 32.0964C26 33.1807 26.241 33.9036 26.4819 34.506C26.7229 35.1084 27.0843 35.7108 27.6867 36.3133C28.2892 36.9157 28.7711 37.1566 29.494 37.5181C30.0964 37.759 30.8193 37.8795 31.9036 38C32.988 38 33.3494 38 36 38C38.6506 38 39.0121 38 40.0964 38C41.1807 38 41.9036 37.759 42.506 37.5181C43.1084 37.2771 43.7108 36.9157 44.3133 36.3133C44.9157 35.7108 45.1566 35.2289 45.5181 34.506C45.759 33.9036 45.8795 33.1807 46 32.0964C46 31.0121 46 30.6506 46 28C46 25.3494 46 24.988 46 23.9036C46 22.8193 45.759 22.0964 45.5181 21.494C45.2771 20.8916 44.9157 20.2892 44.3133 19.6867C43.7108 19.0843 43.2289 18.8434 42.506 18.4819C41.9036 18.241 41.1807 18.1205 40.0964 18C39.0121 18 38.7711 18 36 18Z" fill="white"/>
<path d="M36 22.8193C33.1084 22.8193 30.8193 25.1084 30.8193 28C30.8193 30.8916 33.1084 33.1807 36 33.1807C38.8916 33.1807 41.1807 30.8916 41.1807 28C41.1807 25.1084 38.8916 22.8193 36 22.8193ZM36 31.3735C34.1928 31.3735 32.6265 29.9277 32.6265 28C32.6265 26.1928 34.0723 24.6265 36 24.6265C37.8072 24.6265 39.3735 26.0723 39.3735 28C39.3735 29.8072 37.8072 31.3735 36 31.3735Z" fill="white"/>
<path d="M41.3012 23.9036C41.9666 23.9036 42.506 23.3642 42.506 22.6988C42.506 22.0334 41.9666 21.494 41.3012 21.494C40.6358 21.494 40.0964 22.0334 40.0964 22.6988C40.0964 23.3642 40.6358 23.9036 41.3012 23.9036Z" fill="white"/>
</g>
<defs>
<filter id="filter0_dd_1_1179" x="0" y="0" width="72" height="72" filterUnits="userSpaceOnUse" color-interpolation-filters="sRGB">
<feFlood flood-opacity="0" result="BackgroundImageFix"/>
<feColorMatrix in="SourceAlpha" type="matrix" values="0 0 0 0 0 0 0 0 0 0 0 0 0 0 0 0 0 0 127 0" result="hardAlpha"/>
<feOffset dy="8"/>
<feGaussianBlur stdDeviation="8"/>
<feColorMatrix type="matrix" values="0 0 0 0 0.196487 0 0 0 0 0.196487 0 0 0 0 0.279476 0 0 0 0.06 0"/>
<feBlend mode="multiply" in2="BackgroundImageFix" result="effect1_dropShadow_1_1179"/>
<feColorMatrix in="SourceAlpha" type="matrix" values="0 0 0 0 0 0 0 0 0 0 0 0 0 0 0 0 0 0 127 0" result="hardAlpha"/>
<feOffset dy="8"/>
<feGaussianBlur stdDeviation="4"/>
<feColorMatrix type="matrix" values="0 0 0 0 0.196487 0 0 0 0 0.196487 0 0 0 0 0.279476 0 0 0 0.08 0"/>
<feBlend mode="multiply" in2="effect1_dropShadow_1_1179" result="effect2_dropShadow_1_1179"/>
<feBlend mode="normal" in="SourceGraphic" in2="effect2_dropShadow_1_1179" result="shape"/>
</filter>
<radialGradient id="paint0_radial_1_1179" cx="0" cy="0" r="1" gradientUnits="userSpaceOnUse" gradientTransform="translate(56.8047 8.8125) scale(92.3719)">
<stop stop-color="#F9ED32"/>
<stop offset="0.36" stop-color="#EE2A7B"/>
<stop offset="0.44" stop-color="#D22A8A"/>
<stop offset="0.6" stop-color="#8B2AB2"/>
<stop offset="0.83" stop-color="#1B2AF0"/>
<stop offset="0.88" stop-color="#002AFF"/>
</radialGradient>
</defs>
</svg>
