<svg width="25" height="25" viewBox="0 0 25 25" fill="none" xmlns="http://www.w3.org/2000/svg">
<path d="M11.1386 0.0765762C8.7043 0.356846 6.33835 1.36855 4.46474 2.94763C1.33293 5.5726 -0.36974 9.74931 0.067893 13.7278C0.341414 16.2502 1.23719 18.4308 2.80994 20.3859C3.3433 21.0421 4.26643 21.9445 4.82031 22.3546L5.10067 22.5597L5.1417 21.3771C5.16905 20.4132 5.20324 20.0851 5.34684 19.5382C5.98961 17.1047 7.80169 15.1701 10.2018 14.3703L10.8104 14.1653L10.3728 13.9397C9.70265 13.5842 8.90944 12.7502 8.56071 12.0325C8.19829 11.2805 8.09572 10.8567 8.09572 10.0159C8.09572 8.81963 8.52652 7.80109 9.3881 6.93294C9.94198 6.38607 10.3933 6.1058 11.1728 5.8392C11.6378 5.68197 11.8361 5.65463 12.472 5.64779C13.7439 5.64096 14.7354 6.04428 15.6244 6.93294C16.486 7.79425 16.9099 8.80596 16.9099 10.0159C16.9168 10.8499 16.8142 11.2805 16.4518 12.0325C16.103 12.7502 15.3098 13.5842 14.6329 13.9397L14.2021 14.1653L14.7696 14.3567C17.1766 15.1291 19.0229 17.091 19.6656 19.5382C19.8024 20.0714 19.8434 20.4337 19.8845 21.3908L19.9255 22.587L20.5409 22.0675C26.0318 17.4738 26.5242 9.17509 21.6145 3.95934C18.9203 1.09512 14.9884 -0.360918 11.1386 0.0765762Z" fill="#95B544"/>
<path d="M11.4129 6.65243C10.4692 6.97372 9.77858 7.54793 9.35462 8.3819C9.04691 8.96978 8.9375 9.39361 8.9375 10.0498C8.9375 11.041 9.30675 11.9365 10.0042 12.6133C10.7085 13.2969 11.5154 13.6182 12.5411 13.625C13.8951 13.625 15.037 12.9209 15.6729 11.7041C16.726 9.68071 15.6798 7.25399 13.4711 6.60458C12.9104 6.44052 11.9667 6.46103 11.4129 6.65243Z" fill="#95B544"/>
<path d="M11.2077 14.9651C8.91692 15.4572 7.05014 17.0978 6.31164 19.258C6.02444 20.1125 5.94238 20.7345 5.94238 22.0743V23.1476L6.44156 23.4278C8.4998 24.5899 11.1256 25.1642 13.4505 24.9591C15.3447 24.795 17.0063 24.3028 18.5175 23.462L19.085 23.1407L19.0509 21.7394C19.0235 20.6251 18.9893 20.2355 18.8799 19.8185C18.0799 16.8449 15.4814 14.8215 12.4727 14.842C12.0898 14.842 11.5359 14.8967 11.2077 14.9651Z" fill="#95B544"/>
</svg>
