<svg width="40" height="12" viewBox="0 0 40 12" fill="none" xmlns="http://www.w3.org/2000/svg">
<path d="M39.9138 6.3584C39.8045 6.10059 39.6326 5.99121 37.5232 4.88965C35.2654 3.70996 33.7498 2.99121 31.9373 2.2334C29.7498 1.32715 26.8826 0.381836 26.3279 0.381836C25.8357 0.381836 25.3748 0.913086 25.4842 1.35059C25.6013 1.81152 27.117 3.50684 28.3045 4.50684L28.9998 5.09277L27.4842 5.03809C26.6482 5.00684 24.6248 4.91309 22.992 4.83496C17.6795 4.56152 15.3435 4.50684 11.9373 4.5459C8.42165 4.58496 6.99197 4.67871 4.43728 5.03809C2.67165 5.28809 0.491966 5.72559 0.249779 5.88965C0.0232165 6.03809 -0.0549085 6.31934 0.0388415 6.6084C0.148216 6.93652 0.406029 7.03027 0.999779 6.94434C2.03884 6.80371 4.15603 6.63184 6.46853 6.50684C9.49197 6.34277 15.1795 6.38965 21.9763 6.62402C24.6013 6.71777 27.3513 6.81152 28.0857 6.83496C29.1482 6.87402 29.4217 6.90527 29.3748 6.9834C29.3435 7.03809 28.7263 7.74121 27.992 8.5459C26.3513 10.3584 26.2342 10.5068 26.2342 10.8037C26.2342 11.1318 26.4998 11.5381 26.7498 11.6006C27.156 11.7021 29.3748 11.335 31.2342 10.8506C33.7654 10.1943 36.1248 9.25684 38.7185 7.86621C39.4685 7.46777 39.7888 7.24902 39.8748 7.09277C39.992 6.85059 40.0076 6.60059 39.9138 6.3584ZM34.281 8.05371C32.8904 8.6084 31.1013 9.16309 29.9217 9.40527C29.5623 9.47559 29.2576 9.52246 29.242 9.50684C29.2263 9.49121 29.742 8.91309 30.3826 8.21777C31.0232 7.52246 31.5467 6.89746 31.5467 6.82715C31.5467 6.75684 31.617 6.6084 31.7029 6.49902C31.8123 6.3584 31.8592 6.17871 31.8592 5.92871C31.8592 5.47559 31.617 5.19434 31.1717 5.11621C30.9295 5.07715 30.7029 4.89746 29.7107 3.89746C29.0701 3.25684 28.5623 2.72559 28.5935 2.72559C28.6248 2.72559 29.0779 2.88965 29.6092 3.08496C31.2576 3.69434 33.2576 4.56934 35.3904 5.63184L37.4451 6.64746L36.5467 7.07715C36.0545 7.31152 35.031 7.74902 34.281 8.05371Z" fill="#95B544"/>
</svg>
