<svg width="70" height="20" viewBox="0 0 70 20" fill="none" xmlns="http://www.w3.org/2000/svg">
<path d="M69.8492 10.459C69.6578 10.0078 69.357 9.81641 65.6656 7.88867C61.7145 5.82422 59.0621 4.56641 55.8902 3.24023C52.0621 1.6543 47.0445 0 46.0738 0C45.2125 0 44.4059 0.929688 44.5973 1.69531C44.8023 2.50195 47.4547 5.46875 49.5328 7.21875L50.7496 8.24414L48.0973 8.14844C46.6344 8.09375 43.0934 7.92969 40.2359 7.79297C30.9391 7.31445 26.8512 7.21875 20.8902 7.28711C14.7379 7.35547 12.2359 7.51953 7.76524 8.14844C4.6754 8.58594 0.860941 9.35156 0.437113 9.63867C0.0406289 9.89844 -0.0960899 10.3906 0.0679726 10.8965C0.259379 11.4707 0.710551 11.6348 1.74961 11.4844C3.56797 11.2383 7.27305 10.9375 11.3199 10.7188C16.6109 10.4316 26.5641 10.5137 38.4586 10.9238C43.0523 11.0879 47.8648 11.252 49.15 11.293C51.0094 11.3613 51.4879 11.416 51.4059 11.5527C51.3512 11.6484 50.2711 12.8789 48.9859 14.2871C46.1148 17.459 45.9098 17.7188 45.9098 18.2383C45.9098 18.8125 46.3746 19.5234 46.8121 19.6328C47.523 19.8105 51.4059 19.168 54.6598 18.3203C59.0895 17.1719 63.2184 15.5313 67.7574 13.0977C69.0699 12.4004 69.6305 12.0176 69.7809 11.7441C69.9859 11.3203 70.0133 10.8828 69.8492 10.459ZM59.9918 13.4258C57.5582 14.3965 54.4273 15.3672 52.3629 15.791C51.734 15.9141 51.2008 15.9961 51.1734 15.9688C51.1461 15.9414 52.0484 14.9297 53.1695 13.7129C54.2906 12.4961 55.2066 11.4023 55.2066 11.2793C55.2066 11.1563 55.3297 10.8965 55.4801 10.7051C55.6715 10.459 55.7535 10.1445 55.7535 9.70703C55.7535 8.91406 55.3297 8.42188 54.5504 8.28516C54.1266 8.2168 53.7301 7.90234 51.9938 6.15234C50.8727 5.03125 49.984 4.10156 50.0387 4.10156C50.0934 4.10156 50.8863 4.38867 51.816 4.73047C54.7008 5.79688 58.2008 7.32813 61.9332 9.1875L65.5289 10.9648L63.9566 11.7168C63.0953 12.127 61.3043 12.8926 59.9918 13.4258Z" fill="white" fill-opacity="0.6"/>
</svg>
