<svg width="50" height="50" viewBox="0 0 50 50" fill="none" xmlns="http://www.w3.org/2000/svg">
<path d="M0.0881653 25.4395C0.224884 25.1172 0.439728 24.9805 3.07645 23.6035C5.89871 22.1289 7.79324 21.2305 10.0589 20.2832C12.7932 19.1504 16.3772 17.9687 17.0706 17.9687C17.6858 17.9687 18.262 18.6328 18.1253 19.1797C17.9788 19.7559 16.0843 21.875 14.5999 23.125L13.7307 23.8574L15.6253 23.7891C16.6702 23.75 19.1995 23.6328 21.2405 23.5352C27.8811 23.1934 30.8011 23.125 35.0589 23.1738C39.4534 23.2227 41.2405 23.3398 44.4339 23.7891C46.6409 24.1016 49.3655 24.6484 49.6682 24.8535C49.9514 25.0391 50.0491 25.3906 49.9319 25.752C49.7952 26.1621 49.4729 26.2793 48.7307 26.1719C47.4319 25.9961 44.7854 25.7813 41.8948 25.625C38.1155 25.4199 31.0061 25.4785 22.51 25.7715C19.2288 25.8887 15.7913 26.0059 14.8733 26.0352C13.5452 26.084 13.2034 26.123 13.262 26.2207C13.3011 26.2891 14.0725 27.168 14.9905 28.1738C17.0413 30.4395 17.1878 30.625 17.1878 30.9961C17.1878 31.4063 16.8557 31.9141 16.5432 31.9922C16.0354 32.1191 13.262 31.6602 10.9378 31.0547C7.77371 30.2344 4.82449 29.0625 1.58231 27.3242C0.644806 26.8262 0.244415 26.5527 0.136993 26.3574C-0.00949097 26.0547 -0.0290222 25.7422 0.0881653 25.4395ZM7.12918 27.5586C8.86746 28.252 11.1038 28.9453 12.5784 29.248C13.0276 29.3359 13.4085 29.3945 13.428 29.375C13.4475 29.3555 12.803 28.6328 12.0022 27.7637C11.2014 26.8945 10.5471 26.1133 10.5471 26.0254C10.5471 25.9375 10.4593 25.752 10.3518 25.6152C10.2151 25.4395 10.1565 25.2148 10.1565 24.9023C10.1565 24.3359 10.4593 23.9844 11.0159 23.8867C11.3186 23.8379 11.6018 23.6133 12.8421 22.3633C13.6429 21.5625 14.2776 20.8984 14.2386 20.8984C14.1995 20.8984 13.6331 21.1035 12.969 21.3477C10.9085 22.1094 8.40848 23.2031 5.74246 24.5313L3.1741 25.8008L4.29715 26.3379C4.91238 26.6309 6.19168 27.1777 7.12918 27.5586Z" fill="#95B544"/>
</svg>
