<svg width="50" height="50" viewBox="0 0 50 50" fill="none" xmlns="http://www.w3.org/2000/svg">
<path d="M49.9118 25.4395C49.7751 25.1172 49.5603 24.9805 46.9236 23.6035C44.1013 22.1289 42.2068 21.2305 39.9411 20.2832C37.2068 19.1504 33.6228 17.9687 32.9294 17.9687C32.3142 17.9687 31.738 18.6328 31.8747 19.1797C32.0212 19.7559 33.9157 21.875 35.4001 23.125L36.2693 23.8574L34.3747 23.7891C33.3298 23.75 30.8005 23.6328 28.7595 23.5352C22.1189 23.1934 19.1989 23.125 14.9411 23.1738C10.5466 23.2227 8.75949 23.3398 5.56613 23.7891C3.3591 24.1016 0.634489 24.6484 0.331755 24.8535C0.0485519 25.0391 -0.0491044 25.3906 0.0680831 25.752C0.204802 26.1621 0.527067 26.2793 1.26925 26.1719C2.56808 25.9961 5.21457 25.7813 8.10519 25.625C11.8845 25.4199 18.9939 25.4785 27.49 25.7715C30.7712 25.8887 34.2087 26.0059 35.1267 26.0352C36.4548 26.084 36.7966 26.123 36.738 26.2207C36.6989 26.2891 35.9275 27.168 35.0095 28.1738C32.9587 30.4395 32.8122 30.625 32.8122 30.9961C32.8122 31.4063 33.1443 31.9141 33.4568 31.9922C33.9646 32.1191 36.738 31.6602 39.0622 31.0547C42.2263 30.2344 45.1755 29.0625 48.4177 27.3242C49.3552 26.8262 49.7556 26.5527 49.863 26.3574C50.0095 26.0547 50.029 25.7422 49.9118 25.4395ZM42.8708 27.5586C41.1325 28.252 38.8962 28.9453 37.4216 29.248C36.9724 29.3359 36.5915 29.3945 36.572 29.375C36.5525 29.3555 37.197 28.6328 37.9978 27.7637C38.7986 26.8945 39.4529 26.1133 39.4529 26.0254C39.4529 25.9375 39.5407 25.752 39.6482 25.6152C39.7849 25.4395 39.8435 25.2148 39.8435 24.9023C39.8435 24.3359 39.5407 23.9844 38.9841 23.8867C38.6814 23.8379 38.3982 23.6133 37.1579 22.3633C36.3571 21.5625 35.7224 20.8984 35.7614 20.8984C35.8005 20.8984 36.3669 21.1035 37.031 21.3477C39.0915 22.1094 41.5915 23.2031 44.2575 24.5313L46.8259 25.8008L45.7029 26.3379C45.0876 26.6309 43.8083 27.1777 42.8708 27.5586Z" fill="#95B544"/>
</svg>
