<svg width="70" height="20" viewBox="0 0 70 20" fill="none" xmlns="http://www.w3.org/2000/svg">
<path d="M0.123436 10.6152C0.314842 10.1641 0.615623 9.97266 4.30703 8.04492C8.2582 5.98047 10.9105 4.72266 14.0824 3.39648C17.9105 1.81055 22.9281 0.15625 23.8988 0.15625C24.7602 0.15625 25.5668 1.08594 25.3754 1.85156C25.1703 2.6582 22.518 5.625 20.4398 7.375L19.223 8.40039L21.8754 8.30469C23.3383 8.25 26.8793 8.08594 29.7367 7.94922C39.0336 7.4707 43.1215 7.375 49.0824 7.44336C55.2348 7.51172 57.7367 7.67578 62.2074 8.30469C65.2973 8.74219 69.1117 9.50781 69.5355 9.79492C69.932 10.0547 70.0687 10.5469 69.9047 11.0527C69.7133 11.627 69.2621 11.791 68.223 11.6406C66.4047 11.3945 62.6996 11.0938 58.6527 10.875C53.3617 10.5879 43.4086 10.6699 31.5141 11.0801C26.9203 11.2441 22.1078 11.4082 20.8227 11.4492C18.9633 11.5176 18.4848 11.5723 18.5668 11.709C18.6215 11.8047 19.7016 13.0352 20.9867 14.4434C23.8578 17.6152 24.0629 17.875 24.0629 18.3945C24.0629 18.9688 23.598 19.6797 23.1605 19.7891C22.4496 19.9668 18.5668 19.3242 15.3129 18.4766C10.8832 17.3281 6.7543 15.6875 2.21523 13.2539C0.902733 12.5566 0.342186 12.1738 0.191795 11.9004C-0.0132828 11.4766 -0.0406265 11.0391 0.123436 10.6152ZM9.98086 13.582C12.4145 14.5527 15.5453 15.5234 17.6098 15.9473C18.2387 16.0703 18.7719 16.1523 18.7992 16.125C18.8266 16.0977 17.9242 15.0859 16.8031 13.8691C15.682 12.6523 14.766 11.5586 14.766 11.4355C14.766 11.3125 14.643 11.0527 14.4926 10.8613C14.3012 10.6152 14.2191 10.3008 14.2191 9.86328C14.2191 9.07031 14.643 8.57813 15.4223 8.44141C15.8461 8.37305 16.2426 8.05859 17.9789 6.30859C19.1 5.1875 19.9887 4.25781 19.934 4.25781C19.8793 4.25781 19.0863 4.54492 18.1566 4.88672C15.2719 5.95313 11.7719 7.48438 8.03945 9.34375L4.44375 11.1211L6.01601 11.873C6.87734 12.2832 8.66836 13.0488 9.98086 13.582Z" fill="white" fill-opacity="0.6"/>
</svg>
