<svg width="72" height="72" viewBox="0 0 72 72" fill="none" xmlns="http://www.w3.org/2000/svg">
<g clip-path="url(#clip0_1_1170)" filter="url(#filter0_dd_1_1170)">
<rect x="16" y="8" width="40" height="40" fill="#111111"/>
<path d="M45.9686 23.276C45.2787 23.276 44.5955 23.1401 43.9581 22.8761C43.3208 22.6121 42.7416 22.2251 42.2538 21.7373C41.7659 21.2494 41.3789 20.6703 41.1149 20.0329C40.8509 19.3955 40.715 18.7124 40.715 18.0225H36.9617V32.7199C36.961 33.3899 36.7494 34.0428 36.3569 34.5859C35.9644 35.129 35.4109 35.5348 34.7749 35.7458C34.1389 35.9568 33.4527 35.9623 32.8134 35.7614C32.1741 35.5606 31.6142 35.1637 31.2132 34.6269C30.8121 34.0901 30.5901 33.4407 30.5787 32.7707C30.5673 32.1007 30.7671 31.4441 31.1497 30.894C31.5323 30.3439 32.0784 29.9282 32.7105 29.7057C33.3426 29.4833 34.0286 29.4654 34.6714 29.6547V26.0062C33.3053 25.822 31.9156 26.0589 30.6877 26.6854C29.4598 27.3118 28.4523 28.2979 27.7996 29.5121C27.147 30.7262 26.8802 32.1106 27.0351 33.4803C27.1899 34.85 27.7589 36.1399 28.6661 37.1777C29.5733 38.2155 30.7755 38.9519 32.1123 39.2884C33.449 39.625 34.8566 39.5457 36.1471 39.0613C37.4376 38.5768 38.5495 37.7101 39.3345 36.577C40.1195 35.4439 40.5401 34.0983 40.5402 32.7199L40.6491 25.2907C42.1912 26.4228 44.0551 27.032 45.9682 27.0292L45.9686 23.276Z" fill="url(#paint0_linear_1_1170)"/>
<path d="M44.9762 22.2536C43.5829 22.2535 42.2467 21.7 41.2615 20.7148C40.2763 19.7296 39.7228 18.3933 39.7229 17H35.9695V31.6974C35.9688 32.3675 35.7572 33.0203 35.3648 33.5635C34.9723 34.1066 34.4188 34.5124 33.7828 34.7234C33.1468 34.9344 32.4605 34.9399 31.8212 34.7391C31.182 34.5382 30.6221 34.1413 30.221 33.6045C29.8199 33.0677 29.5979 32.4183 29.5865 31.7483C29.5751 31.0783 29.7749 30.4217 30.1575 29.8716C30.5401 29.3215 31.0862 28.9058 31.7183 28.6833C32.3504 28.4609 33.0364 28.443 33.6792 28.6323V24.9837C32.3132 24.7995 30.9234 25.0364 29.6955 25.6629C28.4677 26.2893 27.4601 27.2755 26.8074 28.4896C26.1548 29.7037 25.888 31.0881 26.0429 32.4578C26.1977 33.8275 26.7667 35.1174 27.6739 36.1552C28.5811 37.193 29.7834 37.9294 31.1201 38.266C32.4568 38.6025 33.8644 38.5233 35.1549 38.0388C36.4454 37.5543 37.5574 36.6876 38.3424 35.5545C39.1273 34.4214 39.5479 33.0758 39.548 31.6974L39.6575 24.2683C41.1997 25.4004 43.0635 26.0096 44.9766 26.0067L44.9762 22.2536Z" fill="url(#paint1_linear_1_1170)"/>
<path d="M44.9763 23.182C43.6777 22.9322 42.5211 22.2017 41.7374 21.1365C40.7468 20.3613 40.0674 19.2563 39.8226 18.0225H36.9618V32.7199C36.9618 33.4174 36.7335 34.0958 36.3118 34.6514C35.8901 35.207 35.2981 35.6094 34.6263 35.7971C33.9545 35.9848 33.2398 35.9476 32.5911 35.691C31.9425 35.4344 31.3956 34.9727 31.034 34.3762C30.3909 33.9576 29.9199 33.3216 29.707 32.5844C29.4942 31.8472 29.5537 31.0581 29.8747 30.3611C30.1957 29.6642 30.7567 29.106 31.4553 28.7886C32.1538 28.4711 32.9433 28.4157 33.6794 28.6323V25.9474C32.4168 25.9636 31.1839 26.3325 30.1198 27.0123C29.0558 27.6921 28.2029 28.6559 27.6575 29.7947C27.1122 30.9335 26.896 32.2021 27.0334 33.4573C27.1708 34.7125 27.6563 35.9043 28.4352 36.8982C29.4239 37.7232 30.6274 38.2493 31.9045 38.4148C33.1816 38.5802 34.4794 38.3782 35.6458 37.8323C36.8122 37.2865 37.7988 36.4194 38.4899 35.3328C39.1811 34.2463 39.5482 32.9852 39.5482 31.6974L39.6576 24.2683C41.1998 25.4004 43.0636 26.0095 44.9767 26.0067L44.9763 23.182Z" fill="url(#paint2_linear_1_1170)"/>
</g>
<defs>
<filter id="filter0_dd_1_1170" x="0" y="0" width="72" height="72" filterUnits="userSpaceOnUse" color-interpolation-filters="sRGB">
<feFlood flood-opacity="0" result="BackgroundImageFix"/>
<feColorMatrix in="SourceAlpha" type="matrix" values="0 0 0 0 0 0 0 0 0 0 0 0 0 0 0 0 0 0 127 0" result="hardAlpha"/>
<feOffset dy="8"/>
<feGaussianBlur stdDeviation="8"/>
<feColorMatrix type="matrix" values="0 0 0 0 0.196487 0 0 0 0 0.196487 0 0 0 0 0.279476 0 0 0 0.06 0"/>
<feBlend mode="multiply" in2="BackgroundImageFix" result="effect1_dropShadow_1_1170"/>
<feColorMatrix in="SourceAlpha" type="matrix" values="0 0 0 0 0 0 0 0 0 0 0 0 0 0 0 0 0 0 127 0" result="hardAlpha"/>
<feOffset dy="8"/>
<feGaussianBlur stdDeviation="4"/>
<feColorMatrix type="matrix" values="0 0 0 0 0.196487 0 0 0 0 0.196487 0 0 0 0 0.279476 0 0 0 0.08 0"/>
<feBlend mode="multiply" in2="effect1_dropShadow_1_1170" result="effect2_dropShadow_1_1170"/>
<feBlend mode="normal" in="SourceGraphic" in2="effect2_dropShadow_1_1170" result="shape"/>
</filter>
<linearGradient id="paint0_linear_1_1170" x1="28.4964" y1="37.0287" x2="44.1089" y2="21.4162" gradientUnits="userSpaceOnUse">
<stop stop-color="#B5053C"/>
<stop offset="0.233" stop-color="#C90441"/>
<stop offset="0.737" stop-color="#F0014B"/>
<stop offset="1" stop-color="#FF004F"/>
</linearGradient>
<linearGradient id="paint1_linear_1_1170" x1="27.2716" y1="36.2386" x2="43.7173" y2="19.793" gradientUnits="userSpaceOnUse">
<stop stop-color="#00B2C9"/>
<stop offset="0.283" stop-color="#00C8D4"/>
<stop offset="0.741" stop-color="#00E6E4"/>
<stop offset="1" stop-color="#00F1EA"/>
</linearGradient>
<linearGradient id="paint2_linear_1_1170" x1="18.0581" y1="46.4597" x2="54.4608" y2="10.0571" gradientUnits="userSpaceOnUse">
<stop stop-color="#DDE3E4"/>
<stop offset="1" stop-color="#FCF7F7"/>
</linearGradient>
<clipPath id="clip0_1_1170">
<rect width="40" height="40" fill="white" transform="translate(16 8)"/>
</clipPath>
</defs>
</svg>
